General
Complete name                            : Life Of Pi [2012] 720p BDRip H264 AC3 - CODY.mp4
Format                                   : MPEG-4
Format profile                           : Base Media
Codec ID                                 : isom
File size                                : 2.28 GiB
Duration                                 : 2h 6mn
Overall bit rate mode                    : Variable
Overall bit rate                         : 2 569 Kbps
Encoded date                             : UTC 2013-03-02 23:59:50

Video
ID                                       : 1
Format                                   : AVC
Format/Info                              : Advanced Video Codec
Format profile                           : High@L4.1
Format settings, CABAC                   : Yes
Format settings, ReFrames                : 5 frames
Codec ID                                 : avc1
Codec ID/Info                            : Advanced Video Coding
Duration                                 : 2h 6mn
Bit rate mode                            : Variable
Bit rate                                 : 2 120 Kbps
Maximum bit rate                         : 20.0 Mbps
Width                                    : 1 280 pixels
Height                                   : 688 pixels
Display aspect ratio                     : 1.85:1
Frame rate mode                          : Constant
Frame rate                               : 23.976 fps
Color space                              : YUV
Chroma subsampling                       : 4:2:0
Bit depth                                : 8 bits
Scan type                                : Progressive
Bits/(Pixel*Frame)                       : 0.100
Stream size                              : 1.88 GiB (82%)
Writing library                          : rc=2pass
Color primaries                          : Generic film

Audio
ID                                       : 2
Format                                   : AC-3
Format/Info                              : Audio Coding 3
Mode extension                           : CM (complete main)
Format settings, Endianness              : Big
Codec ID                                 : ac-3
Duration                                 : 2h 6mn
Bit rate mode                            : Constant
Bit rate                                 : 448 Kbps
Channel(s)                               : 6 channels
Channel positions                        : Front: L C R, Side: L R, LFE
Sampling rate                            : 48.0 KHz
Bit depth                                : 16 bits
Compression mode                         : Lossy
Delay relative to video                  : 125ms
Stream size                              : 407 MiB (17%)



Audio language                           : English, Tamil, French

IMDB link:                                 http://www.imdb.com/title/tt0454876/

Subtitles included                       : English.srt, Romanian.srt 
                                           and Multipack Sub+idx converted from 
                                           pgs/sup from bluray

Please seed at least 1,5:1. This way this torrent has a chance to survive !

Thanks. Enjoy !                                   		                  